<mxfile host="app.diagrams.net" modified="2024-02-25T20:16:43.851Z" agent="Mozilla/5.0 (Macintosh; Intel Mac OS X 10_15_7) AppleWebKit/605.1.15 (KHTML, like Gecko) Version/17.2.1 Safari/605.1.15" etag="thbaZQgPygSqEkg_zQAw" version="23.1.6" type="device">
  <diagram name="Sayfa -1" id="PZ5AzNNGYNpLF9cDOnvr">
    <mxGraphModel dx="763" dy="518" grid="1" gridSize="10" guides="1" tooltips="1" connect="1" arrows="1" fold="1" page="1" pageScale="1" pageWidth="827" pageHeight="1169" math="0" shadow="0">
      <root>
        <mxCell id="0" />
        <mxCell id="1" parent="0" />
        <mxCell id="0asC-71aqcHhQWgowx3V-1" value="&lt;font size=&quot;1&quot;&gt;&lt;b style=&quot;font-size: 19px;&quot;&gt;Begin&lt;/b&gt;&lt;/font&gt;" style="ellipse;whiteSpace=wrap;html=1;" vertex="1" parent="1">
          <mxGeometry x="280" y="10" width="240" height="60" as="geometry" />
        </mxCell>
        <mxCell id="0asC-71aqcHhQWgowx3V-3" value="" style="endArrow=classic;html=1;rounded=0;strokeWidth=5;" edge="1" parent="1">
          <mxGeometry width="50" height="50" relative="1" as="geometry">
            <mxPoint x="399.5" y="70" as="sourcePoint" />
            <mxPoint x="399.5" y="110" as="targetPoint" />
            <Array as="points">
              <mxPoint x="399.5" y="90" />
            </Array>
          </mxGeometry>
        </mxCell>
        <mxCell id="0asC-71aqcHhQWgowx3V-4" value="&lt;font style=&quot;font-size: 15px;&quot;&gt;eps = 0.001&lt;/font&gt;" style="rounded=0;whiteSpace=wrap;html=1;" vertex="1" parent="1">
          <mxGeometry x="270" y="110" width="260" height="60" as="geometry" />
        </mxCell>
        <mxCell id="0asC-71aqcHhQWgowx3V-9" value="" style="endArrow=classic;html=1;rounded=0;strokeWidth=5;" edge="1" parent="1">
          <mxGeometry width="50" height="50" relative="1" as="geometry">
            <mxPoint x="399.76" y="170" as="sourcePoint" />
            <mxPoint x="399.76" y="210" as="targetPoint" />
            <Array as="points">
              <mxPoint x="399.76" y="190" />
            </Array>
          </mxGeometry>
        </mxCell>
        <mxCell id="0asC-71aqcHhQWgowx3V-10" value="&lt;font style=&quot;font-size: 15px;&quot;&gt;x&lt;/font&gt;" style="shape=parallelogram;perimeter=parallelogramPerimeter;whiteSpace=wrap;html=1;fixedSize=1;" vertex="1" parent="1">
          <mxGeometry x="260" y="210" width="270" height="60" as="geometry" />
        </mxCell>
        <mxCell id="0asC-71aqcHhQWgowx3V-11" value="" style="endArrow=classic;html=1;rounded=0;strokeWidth=5;" edge="1" parent="1">
          <mxGeometry width="50" height="50" relative="1" as="geometry">
            <mxPoint x="399.71" y="270" as="sourcePoint" />
            <mxPoint x="399.71" y="310" as="targetPoint" />
            <Array as="points">
              <mxPoint x="399.71" y="290" />
            </Array>
          </mxGeometry>
        </mxCell>
        <mxCell id="0asC-71aqcHhQWgowx3V-12" value="&lt;font style=&quot;font-size: 15px;&quot;&gt;i = 1&lt;/font&gt;" style="rounded=0;whiteSpace=wrap;html=1;" vertex="1" parent="1">
          <mxGeometry x="270" y="310" width="260" height="50" as="geometry" />
        </mxCell>
        <mxCell id="0asC-71aqcHhQWgowx3V-15" value="" style="endArrow=classic;html=1;rounded=0;strokeWidth=5;fontStyle=1" edge="1" parent="1">
          <mxGeometry width="50" height="50" relative="1" as="geometry">
            <mxPoint x="399.71" y="360" as="sourcePoint" />
            <mxPoint x="399.71" y="400" as="targetPoint" />
            <Array as="points">
              <mxPoint x="399.71" y="380" />
            </Array>
          </mxGeometry>
        </mxCell>
        <mxCell id="0asC-71aqcHhQWgowx3V-16" value="&lt;font style=&quot;font-size: 15px;&quot;&gt;fakt = 1; z1 = 1&lt;/font&gt;" style="rounded=0;whiteSpace=wrap;html=1;" vertex="1" parent="1">
          <mxGeometry x="270" y="400" width="260" height="50" as="geometry" />
        </mxCell>
        <mxCell id="0asC-71aqcHhQWgowx3V-17" value="" style="endArrow=classic;html=1;rounded=0;strokeWidth=5;fontStyle=1" edge="1" parent="1">
          <mxGeometry width="50" height="50" relative="1" as="geometry">
            <mxPoint x="399.71" y="450" as="sourcePoint" />
            <mxPoint x="399.71" y="490" as="targetPoint" />
            <Array as="points">
              <mxPoint x="399.71" y="470" />
            </Array>
          </mxGeometry>
        </mxCell>
        <mxCell id="0asC-71aqcHhQWgowx3V-18" value="&lt;font style=&quot;font-size: 15px;&quot;&gt;s = 0; z = 1&lt;/font&gt;" style="rounded=0;whiteSpace=wrap;html=1;" vertex="1" parent="1">
          <mxGeometry x="270" y="490" width="260" height="50" as="geometry" />
        </mxCell>
        <mxCell id="0asC-71aqcHhQWgowx3V-19" value="" style="endArrow=classic;html=1;rounded=0;strokeWidth=5;fontStyle=1" edge="1" parent="1">
          <mxGeometry width="50" height="50" relative="1" as="geometry">
            <mxPoint x="399.71" y="540" as="sourcePoint" />
            <mxPoint x="399.71" y="580" as="targetPoint" />
            <Array as="points">
              <mxPoint x="399.71" y="560" />
            </Array>
          </mxGeometry>
        </mxCell>
        <mxCell id="0asC-71aqcHhQWgowx3V-20" value="&lt;h1 style=&quot;box-sizing: border-box; margin: 30px 0px 15px; font-family: Dosis, &amp;quot;Helvetica Neue&amp;quot;, &amp;quot;Open Sans&amp;quot;, Arial, sans-serif; font-weight: 400; line-height: 1.1; color: rgb(51, 51, 51); -webkit-font-smoothing: antialiased; caret-color: rgb(51, 51, 51);&quot;&gt;&lt;sup&gt;&lt;font style=&quot;font-size: 15px;&quot;&gt;|z| &amp;gt; eps&lt;/font&gt;&lt;/sup&gt;&lt;/h1&gt;" style="rhombus;whiteSpace=wrap;html=1;align=center;" vertex="1" parent="1">
          <mxGeometry x="330" y="580" width="140" height="80" as="geometry" />
        </mxCell>
        <mxCell id="0asC-71aqcHhQWgowx3V-21" value="&lt;font style=&quot;font-size: 15px;&quot;&gt;s = s + z&lt;/font&gt;" style="rounded=0;whiteSpace=wrap;html=1;" vertex="1" parent="1">
          <mxGeometry x="330" y="690" width="140" height="40" as="geometry" />
        </mxCell>
        <mxCell id="0asC-71aqcHhQWgowx3V-22" value="" style="endArrow=classic;html=1;rounded=0;strokeWidth=3;fontStyle=1" edge="1" parent="1">
          <mxGeometry width="50" height="50" relative="1" as="geometry">
            <mxPoint x="399.71" y="660" as="sourcePoint" />
            <mxPoint x="400" y="690" as="targetPoint" />
            <Array as="points">
              <mxPoint x="399.71" y="680" />
            </Array>
          </mxGeometry>
        </mxCell>
        <mxCell id="0asC-71aqcHhQWgowx3V-23" value="&lt;span style=&quot;font-weight: normal;&quot;&gt;&lt;font style=&quot;font-size: 15px;&quot;&gt;z1 = z1 * x&lt;/font&gt;&lt;/span&gt;" style="rounded=0;whiteSpace=wrap;html=1;fontStyle=1" vertex="1" parent="1">
          <mxGeometry x="330" y="760" width="140" height="40" as="geometry" />
        </mxCell>
        <mxCell id="0asC-71aqcHhQWgowx3V-24" value="" style="endArrow=classic;html=1;rounded=0;strokeWidth=3;fontStyle=1" edge="1" parent="1">
          <mxGeometry width="50" height="50" relative="1" as="geometry">
            <mxPoint x="399.71" y="730" as="sourcePoint" />
            <mxPoint x="400" y="760" as="targetPoint" />
            <Array as="points">
              <mxPoint x="399.71" y="750" />
            </Array>
          </mxGeometry>
        </mxCell>
        <mxCell id="0asC-71aqcHhQWgowx3V-25" value="&lt;font style=&quot;font-size: 15px;&quot;&gt;fakt = fakt * i&lt;/font&gt;" style="rounded=0;whiteSpace=wrap;html=1;" vertex="1" parent="1">
          <mxGeometry x="330" y="830" width="140" height="40" as="geometry" />
        </mxCell>
        <mxCell id="0asC-71aqcHhQWgowx3V-26" value="" style="endArrow=classic;html=1;rounded=0;strokeWidth=3;fontStyle=1" edge="1" parent="1">
          <mxGeometry width="50" height="50" relative="1" as="geometry">
            <mxPoint x="399.71" y="800" as="sourcePoint" />
            <mxPoint x="400" y="830" as="targetPoint" />
            <Array as="points">
              <mxPoint x="399.71" y="820" />
            </Array>
          </mxGeometry>
        </mxCell>
        <mxCell id="0asC-71aqcHhQWgowx3V-27" value="&lt;font style=&quot;font-size: 15px;&quot;&gt;z = z1 / fakt&lt;/font&gt;" style="rounded=0;whiteSpace=wrap;html=1;" vertex="1" parent="1">
          <mxGeometry x="330" y="900" width="140" height="40" as="geometry" />
        </mxCell>
        <mxCell id="0asC-71aqcHhQWgowx3V-28" value="" style="endArrow=classic;html=1;rounded=0;strokeWidth=3;fontStyle=1" edge="1" parent="1">
          <mxGeometry width="50" height="50" relative="1" as="geometry">
            <mxPoint x="399.71" y="870" as="sourcePoint" />
            <mxPoint x="400" y="900" as="targetPoint" />
            <Array as="points">
              <mxPoint x="399.71" y="890" />
            </Array>
          </mxGeometry>
        </mxCell>
        <mxCell id="0asC-71aqcHhQWgowx3V-29" value="&lt;font style=&quot;font-size: 15px;&quot;&gt;i = i + 1&lt;/font&gt;" style="rounded=0;whiteSpace=wrap;html=1;" vertex="1" parent="1">
          <mxGeometry x="330" y="970" width="140" height="40" as="geometry" />
        </mxCell>
        <mxCell id="0asC-71aqcHhQWgowx3V-30" value="" style="endArrow=classic;html=1;rounded=0;strokeWidth=3;fontStyle=1" edge="1" parent="1">
          <mxGeometry width="50" height="50" relative="1" as="geometry">
            <mxPoint x="399.71" y="940" as="sourcePoint" />
            <mxPoint x="400" y="970" as="targetPoint" />
            <Array as="points">
              <mxPoint x="399.71" y="960" />
            </Array>
          </mxGeometry>
        </mxCell>
        <mxCell id="0asC-71aqcHhQWgowx3V-32" value="" style="endArrow=classic;html=1;rounded=0;entryX=0;entryY=0.5;entryDx=0;entryDy=0;" edge="1" parent="1" target="0asC-71aqcHhQWgowx3V-20">
          <mxGeometry width="50" height="50" relative="1" as="geometry">
            <mxPoint x="330" y="989.71" as="sourcePoint" />
            <mxPoint x="270" y="619.4285714285714" as="targetPoint" />
            <Array as="points">
              <mxPoint x="270" y="990" />
              <mxPoint x="270" y="620" />
            </Array>
          </mxGeometry>
        </mxCell>
        <mxCell id="0asC-71aqcHhQWgowx3V-33" value="" style="endArrow=classic;html=1;rounded=0;" edge="1" parent="1">
          <mxGeometry width="50" height="50" relative="1" as="geometry">
            <mxPoint x="470" y="620" as="sourcePoint" />
            <mxPoint x="400" y="1070" as="targetPoint" />
            <Array as="points">
              <mxPoint x="530" y="620" />
              <mxPoint x="530" y="1040" />
              <mxPoint x="400" y="1040" />
            </Array>
          </mxGeometry>
        </mxCell>
        <mxCell id="0asC-71aqcHhQWgowx3V-34" value="&lt;font style=&quot;font-size: 18px;&quot;&gt;s&lt;/font&gt;" style="shape=document;whiteSpace=wrap;html=1;boundedLbl=1;" vertex="1" parent="1">
          <mxGeometry x="310" y="1070" width="180" height="70" as="geometry" />
        </mxCell>
        <mxCell id="0asC-71aqcHhQWgowx3V-35" value="" style="endArrow=classic;html=1;rounded=0;strokeWidth=3;fontStyle=1" edge="1" parent="1">
          <mxGeometry width="50" height="50" relative="1" as="geometry">
            <mxPoint x="399.71" y="1130" as="sourcePoint" />
            <mxPoint x="400" y="1160" as="targetPoint" />
            <Array as="points">
              <mxPoint x="399.71" y="1150" />
            </Array>
          </mxGeometry>
        </mxCell>
        <mxCell id="0asC-71aqcHhQWgowx3V-36" value="&lt;b&gt;&lt;font style=&quot;font-size: 19px;&quot;&gt;End&lt;/font&gt;&lt;/b&gt;" style="ellipse;whiteSpace=wrap;html=1;" vertex="1" parent="1">
          <mxGeometry x="280" y="1160" width="240" height="60" as="geometry" />
        </mxCell>
      </root>
    </mxGraphModel>
  </diagram>
</mxfile>
